<mxfile host="app.diagrams.net" agent="Mozilla/5.0 (Windows NT 10.0; Win64; x64) AppleWebKit/537.36 (KHTML, like Gecko) Chrome/135.0.0.0 Safari/537.36" version="26.2.13">
  <diagram name="Sayfa -1" id="m72BTH2iepxAJSQ6dptV">
    <mxGraphModel grid="0" page="0" gridSize="10" guides="1" tooltips="1" connect="1" arrows="1" fold="1" pageScale="1" pageWidth="827" pageHeight="1169" math="0" shadow="0">
      <root>
        <mxCell id="0" />
        <mxCell id="1" parent="0" />
        <mxCell id="aTZSd12NRYjG_NNv06ie-41" style="edgeStyle=orthogonalEdgeStyle;rounded=0;orthogonalLoop=1;jettySize=auto;html=1;entryX=0.5;entryY=0;entryDx=0;entryDy=0;" edge="1" parent="1" source="aTZSd12NRYjG_NNv06ie-2" target="aTZSd12NRYjG_NNv06ie-7">
          <mxGeometry relative="1" as="geometry" />
        </mxCell>
        <mxCell id="aTZSd12NRYjG_NNv06ie-2" value="" style="ellipse;html=1;shape=startState;fillColor=#000000;strokeColor=#ff0000;" vertex="1" parent="1">
          <mxGeometry x="372.5" y="110" width="55" height="60" as="geometry" />
        </mxCell>
        <mxCell id="aTZSd12NRYjG_NNv06ie-3" value="Start" style="text;html=1;align=center;verticalAlign=middle;resizable=0;points=[];autosize=1;strokeColor=none;fillColor=none;" vertex="1" parent="1">
          <mxGeometry x="446" y="123" width="43" height="26" as="geometry" />
        </mxCell>
        <mxCell id="aTZSd12NRYjG_NNv06ie-4" value="" style="ellipse;html=1;shape=startState;fillColor=#000000;strokeColor=#ff0000;" vertex="1" parent="1">
          <mxGeometry x="415.5" y="875" width="55" height="60" as="geometry" />
        </mxCell>
        <mxCell id="aTZSd12NRYjG_NNv06ie-5" value="End" style="text;html=1;align=center;verticalAlign=middle;resizable=0;points=[];autosize=1;strokeColor=none;fillColor=none;" vertex="1" parent="1">
          <mxGeometry x="473" y="892" width="39" height="26" as="geometry" />
        </mxCell>
        <mxCell id="aTZSd12NRYjG_NNv06ie-42" style="edgeStyle=orthogonalEdgeStyle;rounded=0;orthogonalLoop=1;jettySize=auto;html=1;entryX=0.5;entryY=0;entryDx=0;entryDy=0;" edge="1" parent="1" source="aTZSd12NRYjG_NNv06ie-7" target="aTZSd12NRYjG_NNv06ie-27">
          <mxGeometry relative="1" as="geometry" />
        </mxCell>
        <mxCell id="aTZSd12NRYjG_NNv06ie-7" value="Enter Search Menu" style="rounded=1;whiteSpace=wrap;html=1;" vertex="1" parent="1">
          <mxGeometry x="340" y="202" width="120" height="60" as="geometry" />
        </mxCell>
        <mxCell id="aTZSd12NRYjG_NNv06ie-32" style="edgeStyle=orthogonalEdgeStyle;rounded=0;orthogonalLoop=1;jettySize=auto;html=1;entryX=0;entryY=0.75;entryDx=0;entryDy=0;" edge="1" parent="1" source="aTZSd12NRYjG_NNv06ie-20" target="aTZSd12NRYjG_NNv06ie-27">
          <mxGeometry relative="1" as="geometry">
            <Array as="points">
              <mxPoint x="340" y="534" />
              <mxPoint x="284" y="534" />
              <mxPoint x="284" y="352" />
            </Array>
          </mxGeometry>
        </mxCell>
        <mxCell id="aTZSd12NRYjG_NNv06ie-34" style="edgeStyle=orthogonalEdgeStyle;rounded=0;orthogonalLoop=1;jettySize=auto;html=1;entryX=0.5;entryY=0;entryDx=0;entryDy=0;" edge="1" parent="1" source="aTZSd12NRYjG_NNv06ie-20" target="aTZSd12NRYjG_NNv06ie-35">
          <mxGeometry relative="1" as="geometry">
            <mxPoint x="400" y="574.6470875459559" as="targetPoint" />
            <Array as="points">
              <mxPoint x="440" y="537" />
              <mxPoint x="440" y="537" />
            </Array>
          </mxGeometry>
        </mxCell>
        <mxCell id="aTZSd12NRYjG_NNv06ie-20" value="" style="shape=line;html=1;strokeWidth=6;strokeColor=#ff0000;" vertex="1" parent="1">
          <mxGeometry x="300" y="507" width="200" height="10" as="geometry" />
        </mxCell>
        <mxCell id="aTZSd12NRYjG_NNv06ie-30" style="edgeStyle=orthogonalEdgeStyle;rounded=0;orthogonalLoop=1;jettySize=auto;html=1;entryX=0.5;entryY=0;entryDx=0;entryDy=0;" edge="1" parent="1" source="aTZSd12NRYjG_NNv06ie-27" target="aTZSd12NRYjG_NNv06ie-29">
          <mxGeometry relative="1" as="geometry" />
        </mxCell>
        <mxCell id="aTZSd12NRYjG_NNv06ie-27" value="Search Food" style="rounded=1;whiteSpace=wrap;html=1;" vertex="1" parent="1">
          <mxGeometry x="340" y="307" width="120" height="60" as="geometry" />
        </mxCell>
        <mxCell id="aTZSd12NRYjG_NNv06ie-29" value="View List of Foods" style="rounded=1;whiteSpace=wrap;html=1;" vertex="1" parent="1">
          <mxGeometry x="340" y="403" width="120" height="60" as="geometry" />
        </mxCell>
        <mxCell id="aTZSd12NRYjG_NNv06ie-31" style="edgeStyle=orthogonalEdgeStyle;rounded=0;orthogonalLoop=1;jettySize=auto;html=1;entryX=0.499;entryY=0.741;entryDx=0;entryDy=0;entryPerimeter=0;" edge="1" parent="1" source="aTZSd12NRYjG_NNv06ie-29" target="aTZSd12NRYjG_NNv06ie-20">
          <mxGeometry relative="1" as="geometry" />
        </mxCell>
        <mxCell id="aTZSd12NRYjG_NNv06ie-37" style="edgeStyle=orthogonalEdgeStyle;rounded=0;orthogonalLoop=1;jettySize=auto;html=1;entryX=0.5;entryY=0;entryDx=0;entryDy=0;" edge="1" parent="1" source="aTZSd12NRYjG_NNv06ie-35" target="aTZSd12NRYjG_NNv06ie-36">
          <mxGeometry relative="1" as="geometry" />
        </mxCell>
        <mxCell id="aTZSd12NRYjG_NNv06ie-35" value="Select Food" style="rounded=1;whiteSpace=wrap;html=1;" vertex="1" parent="1">
          <mxGeometry x="380" y="554" width="120" height="60" as="geometry" />
        </mxCell>
        <mxCell id="aTZSd12NRYjG_NNv06ie-36" value="View Nutritional Data of Selected Food" style="rounded=1;whiteSpace=wrap;html=1;" vertex="1" parent="1">
          <mxGeometry x="380" y="643" width="120" height="60" as="geometry" />
        </mxCell>
        <mxCell id="aTZSd12NRYjG_NNv06ie-47" style="edgeStyle=orthogonalEdgeStyle;rounded=0;orthogonalLoop=1;jettySize=auto;html=1;entryX=0.5;entryY=0;entryDx=0;entryDy=0;" edge="1" parent="1" source="aTZSd12NRYjG_NNv06ie-43" target="aTZSd12NRYjG_NNv06ie-46">
          <mxGeometry relative="1" as="geometry">
            <Array as="points">
              <mxPoint x="506" y="774" />
              <mxPoint x="533" y="774" />
            </Array>
          </mxGeometry>
        </mxCell>
        <mxCell id="aTZSd12NRYjG_NNv06ie-49" style="edgeStyle=orthogonalEdgeStyle;rounded=0;orthogonalLoop=1;jettySize=auto;html=1;entryX=0;entryY=0.5;entryDx=0;entryDy=0;" edge="1" parent="1" source="aTZSd12NRYjG_NNv06ie-43" target="aTZSd12NRYjG_NNv06ie-29">
          <mxGeometry relative="1" as="geometry">
            <Array as="points">
              <mxPoint x="364" y="777" />
              <mxPoint x="254" y="777" />
              <mxPoint x="254" y="433" />
            </Array>
          </mxGeometry>
        </mxCell>
        <mxCell id="aTZSd12NRYjG_NNv06ie-51" style="edgeStyle=orthogonalEdgeStyle;rounded=0;orthogonalLoop=1;jettySize=auto;html=1;entryX=0.5;entryY=0;entryDx=0;entryDy=0;" edge="1" parent="1" source="aTZSd12NRYjG_NNv06ie-43" target="aTZSd12NRYjG_NNv06ie-4">
          <mxGeometry relative="1" as="geometry" />
        </mxCell>
        <mxCell id="aTZSd12NRYjG_NNv06ie-43" value="" style="shape=line;html=1;strokeWidth=6;strokeColor=#ff0000;" vertex="1" parent="1">
          <mxGeometry x="343" y="742" width="200" height="10" as="geometry" />
        </mxCell>
        <mxCell id="aTZSd12NRYjG_NNv06ie-45" style="edgeStyle=orthogonalEdgeStyle;rounded=0;orthogonalLoop=1;jettySize=auto;html=1;entryX=0.488;entryY=0.38;entryDx=0;entryDy=0;entryPerimeter=0;" edge="1" parent="1" source="aTZSd12NRYjG_NNv06ie-36" target="aTZSd12NRYjG_NNv06ie-43">
          <mxGeometry relative="1" as="geometry" />
        </mxCell>
        <mxCell id="aTZSd12NRYjG_NNv06ie-48" style="edgeStyle=orthogonalEdgeStyle;rounded=0;orthogonalLoop=1;jettySize=auto;html=1;entryX=1;entryY=0.5;entryDx=0;entryDy=0;" edge="1" parent="1" source="aTZSd12NRYjG_NNv06ie-46" target="aTZSd12NRYjG_NNv06ie-36">
          <mxGeometry relative="1" as="geometry">
            <Array as="points">
              <mxPoint x="620" y="826" />
              <mxPoint x="620" y="673" />
            </Array>
          </mxGeometry>
        </mxCell>
        <mxCell id="aTZSd12NRYjG_NNv06ie-46" value="Add Food to Meal Plan" style="rounded=1;whiteSpace=wrap;html=1;" vertex="1" parent="1">
          <mxGeometry x="473" y="796" width="120" height="60" as="geometry" />
        </mxCell>
      </root>
    </mxGraphModel>
  </diagram>
</mxfile>
